<svg xmlns:svg="http://www.w3.org/2000/svg" xmlns="http://www.w3.org/2000/svg" width="110.8" height="105.5" version="1.1"><g transform="translate(-300.46695,-789.42838)"><g transform="matrix(1.9309834,0,0,1.9309834,-279.72976,-879.85396)"><path d="m110.8 105.5 155.4 0 0-80.6-155.4 0 0 80.6z"/><g transform="matrix(1.25,0,0,-1.25,306.43448,868.16139)"><path d="m0 0c-1 0-1.8-0.8-1.8-1.7l0-40.3c0-0.9 0.8-1.7 1.8-1.7l44.1 0L44.1 0 0 0"/></g><g transform="matrix(1.25,0,0,-1.25,335.1607,893.86015)"><path d="M0 0C1.3 0.7 2.3 2.1 2.3 2.9 2.3 3.5 1.3 4 0 4.2L0 4C1.1 3.8 1.8 3.4 1.8 3.1c0-0.3-0.6-0.5-1.5-0.6 0 0 0 0 0 0-0.1 0-0.2 0-0.2 0L0 0zm-1.6 4.3c0.1 0.3 0.2 0.7 0.4 1.1 0.4 1.1-0.2 2.4-0.3 2.8C-1.7 8.6-2.2 9.7-2.2 9.7-2.4 8-3.2 7.2-3.5 6.4-3.6 5.9-3.4 5.4-3.2 5-3.1 4.8-2.9 4.5-2.8 4.3-3.1 4.3-3.5 4.2-3.8 4.1l0-0.2c0.3 0.1 0.7 0.1 1.1 0.2 0-0.1 0.1-0.1 0.1-0.2C-2.3 3.6-2.2 3.4-2.2 3-2.2 2.4-3.2 2.4-3.8 2.5l0-2.3c0.6-0.4 1.3-0.6 2-0.6 0.6 0 1.2 0.2 1.7 0.4l0 2.5c-0.6 0-1.5 0-1.7 0.6-0.1 0.2 0 0.6 0.1 1.1 0.6 0 1.2-0.1 1.6-0.2L0 4.2C-0.5 4.3-1 4.3-1.6 4.3zM-3.8 4.1C-5 3.9-5.8 3.4-5.8 2.9c0-0.7 0.8-2 2-2.7l0 2.3c-1 0.1-1.6 0.4-1.6 0.6 0 0.3 0.6 0.6 1.6 0.8l0 0.2" fill="#fff"/></g><g transform="matrix(1.25,0,0,-1.25,321.80571,882.70639)"><path d="M0 0C0 0 0.2 0.8 0.2 0.9 0.2 1.1 0.1 1.7 0.7 1.3 1.3 1 1.2 0.5 1 0.2 0.9-0.1 0.6-1.1 0.4-1.4l-0.7-1.9c0 0-0.1-0.2-0.1-0.2 0 0-0.3-1-0.2-2l0.1-1.2c0 0 0-0.1 0.1 0 0 0 0.1 0.1 0 0.7 0 0 0 1.2 0 1.5 0 0.3 0.2 1.1 0.2 1.2 0.1 0.2 0.1 0.2 0.2 0.5 0.1 0.4 0.6 1.5 0.6 1.5 0 0 0.6 1.2 0.7 1.5 0 0 0.3 0.6 0.2 1.5 0 0-0.1 0.2 0 0.3 0.1 0.1 0.6 0 0.7-0.1C2.6 1.7 2.9 1.4 2.9 1 2.8 0.6 2.6-0.1 2.4-0.8c0 0-0.2-0.5-0.4-0.7-0.1-0.1-0.7-1.5-0.7-1.5 0-0.1-0.1-0.2-0.1-0.2 0 0-0.3-0.9-0.3-1.2-0.1-0.3-0.2-0.6-0.2-1.3 0-0.6 0.2-1.5 0.2-1.5 0 0 0-0.2 0.1-0.2 0.1 0 0.1 0.4 0.1 0.4 0 0.1 0 0.4-0.1 0.5 0 0.1 0 1.2 0 1.2 0 0 0.1 0.8 0.3 1.3 0.1 0.2 0.2 0.5 0.3 0.8 0.2 0.4 0.4 0.9 0.4 0.9 0 0 0.7 1.5 0.8 1.6 0 0.1 0.4 1 0.4 1.5 0 0.4 0.1 0.8 0.1 0.8 0 0-0.1 0.4 0.4 0.2C4.1 1.7 4.4 1.3 4.5 0.9c0 0 0.1-0.4-0.1-0.4C4.2 0.5 4.2 0.6 4.1 0.5c0 0-0.1-0.1-0.1-0.2C3.9 0.1 3.8-0.3 3.8-0.4c0-0.1 0-0.3-0.1-0.6-0.1-0.4-0.5-1.5-0.6-1.6 0 0-0.3-0.8-0.3-0.8 0-0.1-0.1-0.2-0.1-0.2 0 0-0.4-1.3-0.4-1.6 0-0.3-0.1-0.8-0.1-1.1 0-0.3 0.1-0.7 0.2-1 0 0 0-0.1 0.2-0.1 0.1 0-0.1 0.4 0 1 0.1 0.6 0.2 1.4 0.2 1.6 0 0.2 0.4 1.3 0.4 1.4 0 0.1 0.4 1.2 0.5 1.3 0.1 0.2 0.4 1.2 0.4 1.4 0 0.2 0 0.7 0.6 0.8 0.6-0.2 0.5-1.1 0.5-1.5 0 0-0.1-1-0.5-1.8-0.3-0.7-0.3-0.7-0.3-0.8 0-0.1 0.1-0.8 0.1-1.1 0-0.3 0-0.6-0.1-1.2-0.2-0.6-0.1-0.7 0-0.8 0.1-0.1 0.4-0.6 0.5-0.8 0.1-0.3 0.2-0.8 0.2-0.9 0-0.1 0.4-0.4 0.6-0.7 0.1-0.3 0.6-0.9 0.6-1 0-0.1 1.4-1.8 1.8-2.4 0.4-0.6 0.7-1.2 0.7-1.8 0-0.4-0.2-0.9-0.5-1.3-0.1-0.2-0.3-0.3-0.5-0.4-0.1-0.1-0.3-0.2-0.4-0.3l-0.3-1.2-5.2 0 1.1 1.9c0 0 0.4 0.2-0.4 1.2-0.8 0.9-2.2 3.3-2.2 3.3 0 0-1.2 2-1.5 2.5-0.4 0.5-0.3 3.3-0.3 4.1 0 0-0.1 1 0.4 2.3C-0.5-1.2 0 0 0 0" fill="#fff"/></g><g transform="matrix(1.25,0,0,-1.25,344.09196,882.70639)"><path d="m0 0c0 0-0.2 0.8-0.2 0.9 0 0.2 0.1 0.8-0.5 0.4-0.6-0.4-0.4-0.8-0.3-1.1 0.1-0.3 0.5-1.3 0.7-1.6l0.7-1.9c0 0 0.1-0.2 0.1-0.2 0 0 0.3-1 0.2-2L0.5-6.7c0 0 0-0.1-0.1 0 0 0-0.1 0.1 0 0.7 0 0 0 1.2 0 1.5 0 0.3-0.1 1.1-0.2 1.2-0.1 0.2-0.1 0.2-0.2 0.5-0.1 0.4-0.6 1.5-0.6 1.5 0 0-0.6 1.2-0.7 1.5 0 0-0.3 0.6-0.2 1.5 0 0 0.1 0.2 0 0.3-0.1 0.1-0.5 0-0.7-0.1-0.2-0.1-0.5-0.4-0.5-0.8 0.1-0.4 0.2-1.1 0.5-1.8 0 0 0.2-0.5 0.4-0.7 0.1-0.1 0.7-1.5 0.7-1.5 0-0.1 0.1-0.2 0.1-0.2 0 0 0.3-0.9 0.3-1.2 0.1-0.3 0.2-0.6 0.2-1.3 0-0.6-0.2-1.5-0.2-1.5 0 0 0-0.2-0.1-0.2-0.1 0-0.1 0.4-0.1 0.4 0 0.1 0 0.4 0.1 0.5 0 0.1 0 1.2 0 1.2 0 0-0.1 0.8-0.3 1.3-0.1 0.2-0.2 0.5-0.3 0.8-0.2 0.4-0.4 0.9-0.4 0.9 0 0-0.7 1.5-0.7 1.6 0 0.1-0.4 1-0.5 1.5 0 0.4-0.1 0.8-0.1 0.8 0 0 0.1 0.4-0.4 0.2-0.5-0.2-0.8-0.6-0.8-0.9 0 0-0.1-0.4 0.1-0.4 0.1-0.1 0.2 0 0.3-0.1 0 0 0.1-0.1 0.1-0.2 0-0.1 0.1-0.5 0.1-0.6 0-0.1 0-0.3 0.1-0.6 0.1-0.4 0.5-1.5 0.6-1.6 0 0 0.3-0.8 0.3-0.8 0-0.1 0.1-0.2 0.1-0.2 0 0 0.4-1.3 0.4-1.6 0-0.3 0.1-0.8 0.1-1.1 0-0.3-0.1-0.7-0.2-1 0 0-0.1-0.1-0.2-0.1-0.1 0 0.1 0.4 0 1 0 0.6-0.2 1.4-0.2 1.6 0 0.2-0.4 1.3-0.4 1.4 0 0.1-0.4 1.2-0.5 1.3-0.1 0.2-0.4 1.2-0.4 1.4 0 0.2 0 0.7-0.6 0.8-0.6-0.2-0.5-1.1-0.5-1.5 0 0 0.1-1 0.5-1.8 0.4-0.7 0.3-0.7 0.3-0.8 0-0.1-0.1-0.8-0.1-1.1 0-0.3 0-0.6 0.1-1.2 0.2-0.6 0.1-0.7 0-0.8 0-0.1-0.4-0.6-0.5-0.8-0.1-0.3-0.1-0.8-0.2-0.9 0-0.1-0.4-0.4-0.6-0.7-0.1-0.3-0.6-0.9-0.6-1 0-0.1-1.4-1.8-1.8-2.4-0.4-0.6-0.7-1.2-0.6-1.8 0-0.4 0.2-0.9 0.5-1.3 0.1-0.2 0.3-0.3 0.5-0.4 0.1-0.1 0.3-0.2 0.4-0.3l0.3-1.2 5.3 0-1.1 1.9c0 0-0.4 0.2 0.4 1.2 0.8 0.9 2.2 3.3 2.2 3.3 0 0 1.3 2 1.5 2.5 0.3 0.5 0.3 3.3 0.3 4.1 0 0 0.1 1-0.4 2.3C0.5-1.2 0 0 0 0" fill="#fff"/></g><g transform="matrix(1.25,0,0,-1.25,332.98945,918.04766)"><path d="m0 0c0.5 0 1 0 1 0 3.4 0 6.7 1.5 9.3 4.2 2.2 2.3 3.6 5.3 3.6 7.7l0 12.4c0 2.2-1.4 5.2-3.7 7.5-2.7 2.8-6 4.3-9.5 4.3 0 0-0.4 0-0.7 0l0-0.4c0.4 0 0.7 0 0.7 0 5.5 0 9.7-3.9 11.6-7.6 0.7-1.4 0.5-2.7 0.5-3.8l0-12.4c0-1.3 0.2-2.9-0.6-4.3C11.6 6.6 10.9 5.5 10 4.5 7.5 1.9 4.3 0.4 1 0.4 1 0.4 0.5 0.4 0 0.4L0 0zm0 36.1c-0.4 0-0.9 0-0.9 0-3.4 0-6.8-1.5-9.5-4.3-2.3-2.3-3.7-5.3-3.7-7.6l0-12.4c0-2.3 1.4-5.3 3.6-7.6 2.6-2.7 5.9-4.2 9.3-4.2 0 0 0.5 0 1 0 0 0 0 0 0.1 0l0 0.4c-0.5 0-1.1 0-1.1 0-3.3 0-6.5 1.4-9 4.1-0.9 1-1.7 2-2.2 3.1-0.6 1.2-0.5 3-0.5 4.4l0 12.4c0 1.3-0.2 3 0.8 4.7 2.1 3.4 6.1 6.7 11.2 6.7 0 0 0.4 0 0.9 0l0 0.4" fill="#fff"/></g></g></g></svg>